<svg width="1024" height="1024" viewBox="0 0 1024 1024" fill="none" xmlns="http://www.w3.org/2000/svg">
  <defs>
    <linearGradient id="icon-bg" x1="132" y1="112" x2="900" y2="912" gradientUnits="userSpaceOnUse">
      <stop offset="0" stop-color="#FF8A2B" />
      <stop offset="0.48" stop-color="#FF6A3D" />
      <stop offset="1" stop-color="#1677FF" />
    </linearGradient>
    <radialGradient id="icon-glow" cx="0" cy="0" r="1" gradientUnits="userSpaceOnUse" gradientTransform="translate(822 842) rotate(135) scale(278)">
      <stop stop-color="white" stop-opacity="0.24" />
      <stop offset="1" stop-color="white" stop-opacity="0" />
    </radialGradient>
    <filter id="icon-shadow" x="102" y="158" width="820" height="736" filterUnits="userSpaceOnUse" color-interpolation-filters="sRGB">
      <feFlood flood-opacity="0" result="BackgroundImageFix" />
      <feColorMatrix in="SourceAlpha" type="matrix" values="0 0 0 0 0 0 0 0 0 0 0 0 0 0 0 0 0 0 127 0" result="hardAlpha" />
      <feOffset dy="28" />
      <feGaussianBlur stdDeviation="26" />
      <feColorMatrix type="matrix" values="0 0 0 0 0.113725 0 0 0 0 0.188235 0 0 0 0 0.341176 0 0 0 0.18 0" />
      <feBlend mode="normal" in2="BackgroundImageFix" result="effect1_dropShadow_1_2" />
      <feBlend mode="normal" in="SourceGraphic" in2="effect1_dropShadow_1_2" result="shape" />
    </filter>
  </defs>

  <rect width="1024" height="1024" rx="232" fill="url(#icon-bg)" />
  <circle cx="822" cy="842" r="278" fill="url(#icon-glow)" />

  <g filter="url(#icon-shadow)">
    <path
      d="M608 315C469.376 315 357 409.021 357 525C357 577.364 379.952 624.626 418.381 661.002L386 795L510.657 724.715C541.096 733.34 573.86 738 608 738C746.624 738 859 643.979 859 528C859 412.021 746.624 315 608 315Z"
      fill="white"
      fill-opacity="0.26"
    />
    <circle cx="532" cy="528" r="28" fill="#D9ECFF" />
    <circle cx="608" cy="528" r="28" fill="#D9ECFF" />
    <circle cx="684" cy="528" r="28" fill="#D9ECFF" />

    <path
      d="M429 201C268.286 201 138 319.185 138 464.96C138 530.783 167.964 591.229 218.092 637.598L180 806L321.308 725.863C355.643 736.329 391.984 742 429 742C589.714 742 720 623.815 720 478.04C720 332.185 589.714 201 429 201Z"
      fill="white"
    />
    <circle cx="304" cy="470" r="31" fill="#FF7B28" />
    <circle cx="429" cy="470" r="31" fill="#FF7B28" />
    <circle cx="554" cy="470" r="31" fill="#FF7B28" />
  </g>
</svg>
